# xmcd CD database file
#
# Track frame offsets:
#	150
#	5608
#	21722
#	39894
#	58590
#	70151
#	87924
#	93662
#	109017
#	125775
#	139940
#	147060
#	167854
#	177682
#	198202
#	213480
#
# Disc length: 3033 seconds
#
# Revision: 0
# Processed by: cddbd v1.4PL0 Copyright (c) Steve Scherf et al.
# Submitted via: CDex 1.51
#
DISCID=ef0bd710
DTITLE=the couch experience - analysis
DYEAR=1999
DGENRE=Jazz
TTITLE0=the couch experience
TTITLE1=wasted time
TTITLE2=upside down
TTITLE3=say goodbye to the 90ies
TTITLE4=positive
TTITLE5=love will find a way
TTITLE6=female nervous breakdown
TTITLE7=dream
TTITLE8=the key
TTITLE9=back again
TTITLE10=hop sing`s revenge
TTITLE11=the couch song
TTITLE12=ruth
TTITLE13=rain
TTITLE14=i believe in you
TTITLE15=just a word
EXTD=YEAR: 1999
EXTT0=
EXTT1=
EXTT2=
EXTT3=
EXTT4=
EXTT5=
EXTT6=
EXTT7=
EXTT8=
EXTT9=
EXTT10=
EXTT11=
EXTT12=
EXTT13=
EXTT14=
EXTT15=
PLAYORDER=
